<?xml version="1.0" encoding="UTF-8" standalone="no"?>
<!-- Created with Inkscape (http://www.inkscape.org/) -->

<svg
   xmlns:dc="http://purl.org/dc/elements/1.1/"
   xmlns:cc="http://creativecommons.org/ns#"
   xmlns:rdf="http://www.w3.org/1999/02/22-rdf-syntax-ns#"
   xmlns:svg="http://www.w3.org/2000/svg"
   xmlns="http://www.w3.org/2000/svg"
   xmlns:sodipodi="http://sodipodi.sourceforge.net/DTD/sodipodi-0.dtd"
   xmlns:inkscape="http://www.inkscape.org/namespaces/inkscape"
   width="151.80681mm"
   height="186.55186mm"
   viewBox="0 0 151.80681 186.55187"
   version="1.1"
   id="svg8"
   inkscape:version="0.92.4 5da689c313, 2019-01-14"
   sodipodi:docname="turnon_icon.svg">
  <defs
     id="defs2" />
  <sodipodi:namedview
     id="base"
     pagecolor="#ffffff"
     bordercolor="#666666"
     borderopacity="1.0"
     inkscape:pageopacity="0.0"
     inkscape:pageshadow="2"
     inkscape:zoom="0.98994949"
     inkscape:cx="70.010601"
     inkscape:cy="325.81742"
     inkscape:document-units="mm"
     inkscape:current-layer="layer1"
     showgrid="false"
     fit-margin-top="0"
     fit-margin-left="0"
     fit-margin-right="0"
     fit-margin-bottom="0"
     inkscape:window-width="1920"
     inkscape:window-height="1026"
     inkscape:window-x="0"
     inkscape:window-y="25"
     inkscape:window-maximized="1" />
  <metadata
     id="metadata5">
    <rdf:RDF>
      <cc:Work
         rdf:about="">
        <dc:format>image/svg+xml</dc:format>
        <dc:type
           rdf:resource="http://purl.org/dc/dcmitype/StillImage" />
        <dc:title></dc:title>
      </cc:Work>
    </rdf:RDF>
  </metadata>
  <g
     inkscape:label="Layer 1"
     inkscape:groupmode="layer"
     id="layer1"
     transform="translate(-29.925684,-63.852321)">
    <rect
       style="fill:#ffffff;fill-opacity:1;stroke:#000000;stroke-width:0.26499999;stroke-linecap:round;stroke-miterlimit:4;stroke-dasharray:none;stroke-dashoffset:0;stroke-opacity:1"
       id="rect4516"
       width="151.54181"
       height="186.28687"
       x="30.058184"
       y="63.984821"
       ry="11.49259" />
    <path
       style="fill:#000000;stroke-width:0.26458335"
       d="m 46.236065,247.10451 c -4.90971,-1.07177 -9.31845,-5.0285 -11.25276,-10.09905 l -0.58747,-1.53998 -0.0688,-77.63848 c -0.0759,-85.611097 -0.20348,-78.892236 1.56845,-82.566726 0.58964,-1.22277 1.44859,-2.33152 2.97212,-3.836463 2.41784,-2.388357 4.02255,-3.305621 7.17535,-4.101488 2.1034,-0.530968 2.6369,-0.535048 60.457285,-0.462436 l 58.33515,0.07326 1.74548,0.59205 c 4.89116,1.659033 9.01876,6.180677 10.3216,11.306947 0.26101,1.02702 0.35801,9.16433 0.43367,36.380206 0.0536,19.28151 0.0196,35.70577 -0.0756,36.49835 -0.32481,2.70442 -2.62651,4.08287 -4.94195,2.95966 -2.09746,-1.01746 -1.91174,2.42189 -2.05922,-38.13509 l -0.13229,-36.380206 -0.78371,-1.54825 c -0.95866,-1.89389 -2.6334,-3.41621 -4.54511,-4.13147 -1.42956,-0.53487 -1.77146,-0.53799 -58.92683,-0.53799 -64.006535,0 -58.988625,-0.15057 -61.514245,1.84582 -0.94615,0.74788 -1.5669,1.54737 -2.2001,2.83359 l -0.88208,1.79177 v 76.734716 76.73473 l 0.68821,1.46728 c 0.9102,1.94056 2.01188,3.15396 3.72534,4.10315 l 1.40728,0.77957 58.311735,0.0685 58.31174,0.0685 1.38355,-0.63341 c 1.90376,-0.87157 3.41607,-2.31425 4.28873,-4.09129 l 0.73549,-1.49768 0.13229,-26.20555 c 0.12335,-24.43451 0.16375,-26.25355 0.5978,-26.91585 0.70346,-1.07336 1.92184,-1.5981 3.33956,-1.4383 1.69944,0.19155 2.83132,1.44572 3.06887,3.40042 0.0948,0.77969 0.13021,12.66902 0.0788,26.42074 -0.10405,27.82825 0.002,26.19437 -1.94367,29.8973 -1.73173,3.29548 -5.22233,6.25321 -8.82643,7.479 l -1.73888,0.59141 -58.47291,0.0469 c -48.536435,0.0389 -58.753895,-0.0145 -60.126425,-0.31409 z m 9.04724,-13.11228 c -2.61739,-0.34479 -5.2604,-1.94372 -6.72024,-4.06553 -3.51472,-5.10846 -1.69853,-12.1367 3.83885,-14.85552 1.4349,-0.70452 1.81713,-0.77237 4.35121,-0.77237 2.53408,0 2.91631,0.0678 4.35121,0.77237 3.24358,1.59258 5.34959,4.74448 5.61954,8.41034 0.46705,6.34241 -4.99429,11.35986 -11.44057,10.51071 z m 3.65263,-7.9073 c 1.04485,-1.16929 1.03066,-2.92482 -0.0322,-3.98771 -1.35925,-1.35925 -2.94188,-1.35925 -4.30113,0 -1.36289,1.36288 -0.84511,4.02773 0.93034,4.78811 1.04829,0.44896 2.61616,0.0802 3.40304,-0.8004 z m 94.185815,7.91386 c -4.06371,-0.57311 -7.45235,-3.92946 -8.26943,-8.1906 -0.79955,-4.16969 1.52944,-8.73186 5.47658,-10.7279 1.41553,-0.71582 1.77,-0.77981 4.32418,-0.78061 2.61122,-8e-4 2.89092,0.0526 4.55013,0.86875 2.04982,1.0083 3.65213,2.65922 4.67704,4.81892 0.60133,1.26714 0.69058,1.79715 0.69058,4.10104 0,2.31211 -0.0888,2.83523 -0.7039,4.14739 -1.34478,2.86865 -4.37624,5.27412 -7.11749,5.64774 -0.64595,0.088 -1.41257,0.19425 -1.70361,0.23603 -0.29104,0.0418 -1.15688,-0.0126 -1.92408,-0.12076 z m 3.75145,-7.91149 c 1.14329,-1.14329 1.16186,-2.79635 0.0445,-3.96261 -2.45438,-2.56183 -6.40921,0.27281 -4.77897,3.42534 0.91022,1.76018 3.24644,2.02529 4.73446,0.53727 z m -78.089665,-0.42241 c -3.62427,-0.97606 -6.5518,-3.44269 -8.21162,-6.91884 l -0.9865,-2.06599 V 157.14881 97.617563 l 0.9865,-2.066 c 1.13584,-2.378759 3.25301,-4.658929 5.38331,-5.797749 2.93797,-1.57059 2.12431,-1.52896 29.885675,-1.52896 22.61449,0 25.58772,0.0472 26.86576,0.42638 4.23344,1.25606 7.18516,4.01134 8.77811,8.193939 l 0.59647,1.56614 0.0762,57.679167 c 0.0546,41.33673 -0.007,58.16644 -0.21715,59.39896 -0.83221,4.87856 -4.57805,8.92353 -9.43522,10.18866 -2.19613,0.57202 -51.593615,0.55987 -53.721565,-0.0132 z M 131.0674,218.7822 c 1.66625,-0.49482 3.23554,-1.98527 3.69105,-3.50562 0.17222,-0.57484 0.31134,-2.63964 0.31134,-4.62107 v -3.5819 l -1.38907,0.56989 -1.38906,0.56989 H 105.83333 79.374995 l -1.52135,-0.57528 -1.52135,-0.57529 0.002,3.4857 c 0.002,4.19566 0.24116,5.17106 1.6421,6.6909 1.85169,2.00884 0.51356,1.91503 27.610995,1.93575 21.06204,0.0161 24.26959,-0.0334 25.48053,-0.39297 z m 0.43051,-17.92503 c 1.39785,-0.6301 2.46883,-1.6635 3.07026,-2.96253 0.46162,-0.99705 0.49033,-2.10394 0.49581,-19.11614 l 0.006,-18.05782 H 105.70104 76.332295 v 17.82611 c 0,15.3691 0.0561,17.98517 0.40715,18.98011 0.67022,1.89959 2.12148,3.13848 4.2806,3.65418 0.56509,0.13497 11.54047,0.22034 25.210155,0.19609 22.70664,-0.0403 24.27507,-0.0726 25.26771,-0.52 z m -27.31302,-7.985 c -0.47007,-0.20436 -1.09471,-0.76525 -1.38807,-1.24642 -0.50855,-0.83412 -0.53343,-1.31648 -0.53438,-10.35987 -0.001,-10.8424 8e-4,-10.85423 2.00432,-11.82408 1.73308,-0.83897 3.41521,-0.39449 4.35786,1.1515 0.48455,0.79467 0.51408,1.40611 0.51501,10.66306 0.001,9.67367 -0.008,9.83091 -0.5726,10.54925 -0.62708,0.79719 -1.97448,1.46475 -2.92364,1.44847 -0.3321,-0.006 -0.98842,-0.17756 -1.4585,-0.38191 z m 30.82241,-66.50201 -0.0698,-27.206767 -0.79611,-1.2876 c -0.56538,-0.91442 -1.17674,-1.48349 -2.10942,-1.96354 l -1.31332,-0.67594 -24.21661,-0.0823 c -17.599255,-0.0598 -24.603505,10e-4 -25.632455,0.22341 -1.78613,0.3856 -3.79995,2.20149 -4.24481,3.8276 -0.20068,0.73357 -0.28998,9.238357 -0.291,27.715097 l -0.001,26.65677 h 29.372405 29.37241 z m -31.53379,10.00703 c -3.43876,-0.61214 -6.532275,-2.51873 -8.687945,-5.3545 -4.17902,-5.4975 -3.60386,-13.03231 1.36844,-17.92701 3.56067,-3.50509 8.362565,-4.76545 13.272685,-3.48369 5.68842,1.48493 10.03268,7.16512 10.03268,13.11789 0,3.26201 -1.32738,6.82112 -3.43836,9.21933 -2.9452,3.34593 -8.20295,5.20137 -12.5475,4.42798 z m 4.87336,-7.42791 c 2.14623,-0.97153 3.48555,-2.63734 3.98215,-4.9529 0.56177,-2.61944 -0.89339,-5.65523 -3.34109,-6.97027 -2.90102,-1.55859 -5.65517,-1.14644 -7.92265,1.18558 -1.460335,1.50191 -1.980365,2.77459 -1.976235,4.83657 0.009,4.56153 5.078545,7.79282 9.257825,5.90102 z m 63.73432,40.76763 c -2.50067,-1.32155 -2.35907,-4.99763 0.23674,-6.14588 1.53318,-0.6782 2.77291,-0.45304 3.94189,0.71594 0.78085,0.78085 0.87872,1.03976 0.87872,2.3247 0,1.68054 -0.62026,2.68423 -2.0203,3.2692 -1.15848,0.48404 -1.88511,0.44481 -3.03705,-0.16396 z M 53.645225,99.759623 c -5.15583,-1.67901 -8.14294,-7.520199 -6.42875,-12.571159 1.49157,-4.39498 4.99135,-6.94289 9.53665,-6.94289 4.5453,0 8.04508,2.54791 9.53664,6.94289 1.54606,4.55554 -0.73285,9.856789 -5.17061,12.027989 -1.30887,0.64037 -1.94178,0.77413 -3.95434,0.835717 -1.51482,0.0464 -2.80928,-0.0612 -3.51959,-0.292547 z m 4.4279,-6.903049 c 1.78304,-0.92205 2.17576,-3.1745 0.81837,-4.69369 -0.68307,-0.76449 -0.92952,-0.86407 -2.13837,-0.86407 -1.20886,0 -1.4553,0.0996 -2.13837,0.86407 -0.58369,0.65325 -0.77205,1.1255 -0.77205,1.93562 0,1.34954 0.34011,1.98754 1.40595,2.63744 1.01216,0.61715 1.79928,0.65077 2.82447,0.12063 z m 93.421755,6.852059 c -1.72231,-0.62097 -2.94602,-1.47078 -4.32253,-3.00179 -3.45088,-3.838209 -3.23458,-9.899869 0.48603,-13.620479 4.87256,-4.87255 13.25051,-3.33457 16.20855,2.97548 0.61511,1.31215 0.7039,1.83528 0.7039,4.14738 0,2.3039 -0.0892,2.8339 -0.69058,4.10105 -1.02367,2.157099 -2.62741,3.810489 -4.6742,4.818919 -1.54539,0.7614 -2.06223,0.877797 -4.15326,0.935387 -1.66347,0.0458 -2.74318,-0.0622 -3.55791,-0.355947 z m 5.38991,-7.512089 c 0.65577,-0.65576 0.80687,-1.02563 0.80687,-1.97503 0,-2.95284 -3.92987,-4.1207 -5.45426,-1.62087 -1.88617,3.0931 2.08078,6.162509 4.64739,3.5959 z"
       id="path3724"
       inkscape:connector-curvature="0" />
  </g>
</svg>
