<?xml version="1.0" encoding="UTF-8" standalone="no"?>
<!-- Created with Inkscape (http://www.inkscape.org/) -->

<svg
   width="98.965401mm"
   height="47.606102mm"
   viewBox="0 0 98.965401 47.606102"
   version="1.1"
   id="svg5"
   sodipodi:docname="open-closed-loop-mode.svg"
   inkscape:version="1.1-rc (1:1.1+rc+202105232036+f4db50c7c1)"
   xmlns:inkscape="http://www.inkscape.org/namespaces/inkscape"
   xmlns:sodipodi="http://sodipodi.sourceforge.net/DTD/sodipodi-0.dtd"
   xmlns:xlink="http://www.w3.org/1999/xlink"
   xmlns="http://www.w3.org/2000/svg"
   xmlns:svg="http://www.w3.org/2000/svg">
  <sodipodi:namedview
     id="namedview7"
     pagecolor="#ffffff"
     bordercolor="#666666"
     borderopacity="1.0"
     inkscape:pageshadow="2"
     inkscape:pageopacity="0.0"
     inkscape:pagecheckerboard="0"
     inkscape:document-units="mm"
     showgrid="false"
     inkscape:zoom="1.6104059"
     inkscape:cx="199.6391"
     inkscape:cy="221.37276"
     inkscape:window-width="1920"
     inkscape:window-height="1013"
     inkscape:window-x="0"
     inkscape:window-y="41"
     inkscape:window-maximized="1"
     inkscape:current-layer="layer1"
     fit-margin-top="0"
     fit-margin-left="0"
     fit-margin-right="0"
     fit-margin-bottom="0" />
  <defs
     id="defs2">
    <marker
       style="overflow:visible"
       id="Arrow1Mend"
       refX="0"
       refY="0"
       orient="auto"
       inkscape:stockid="Arrow1Mend"
       inkscape:isstock="true">
      <path
         transform="matrix(-0.4,0,0,-0.4,-4,0)"
         style="fill:context-stroke;fill-rule:evenodd;stroke:context-stroke;stroke-width:1pt"
         d="M 0,0 5,-5 -12.5,0 5,5 Z"
         id="path10118" />
    </marker>
    <g
       id="g8022">
      <symbol
         overflow="visible"
         id="symbol6490">
        <path
           style="stroke:none"
           d=""
           id="path2482" />
      </symbol>
      <symbol
         overflow="visible"
         id="symbol7662">
        <path
           style="stroke:none"
           d="M 3.734375,-6.046875 C 3.8125,-6.40625 3.84375,-6.5 4.640625,-6.5 c 0.234375,0 0.3125,0 0.3125,-0.1875 0,-0.125 -0.109375,-0.125 -0.140625,-0.125 -0.296875,0 -1.03125,0.03125 -1.328125,0.03125 -0.296875,0 -1.015625,-0.03125 -1.328125,-0.03125 -0.0625,0 -0.1875,0 -0.1875,0.203125 C 1.96875,-6.5 2.046875,-6.5 2.25,-6.5 c 0.40625,0 0.6875,0 0.6875,0.1875 0,0.046875 0,0.078125 -0.03125,0.15625 l -1.34375,5.375 c -0.09375,0.375 -0.109375,0.46875 -0.90625,0.46875 -0.234375,0 -0.3125,0 -0.3125,0.203125 C 0.34375,0 0.453125,0 0.484375,0 0.78125,0 1.5,-0.03125 1.796875,-0.03125 2.09375,-0.03125 2.828125,0 3.125,0 c 0.078125,0 0.203125,0 0.203125,-0.1875 0,-0.125 -0.078125,-0.125 -0.296875,-0.125 -0.1875,0 -0.234375,0 -0.421875,-0.015625 -0.21875,-0.015625 -0.25,-0.0625 -0.25,-0.171875 0,-0.078125 0.015625,-0.15625 0.03125,-0.234375 z m 0,0"
           id="path2703" />
      </symbol>
      <symbol
         overflow="visible"
         id="symbol475">
        <path
           style="stroke:none"
           d="M 6.265625,-5.671875 C 6.75,-6.453125 7.171875,-6.484375 7.53125,-6.5 c 0.125,-0.015625 0.140625,-0.171875 0.140625,-0.1875 0,-0.078125 -0.0625,-0.125 -0.140625,-0.125 -0.25,0 -0.546875,0.03125 -0.8125,0.03125 -0.328125,0 -0.671875,-0.03125 -0.984375,-0.03125 -0.0625,0 -0.1875,0 -0.1875,0.1875 0,0.109375 0.078125,0.125 0.15625,0.125 0.265625,0.015625 0.453125,0.125 0.453125,0.328125 0,0.15625 -0.140625,0.375 -0.140625,0.375 l -3.0625,4.875 -0.6875,-5.28125 C 2.265625,-6.375 2.5,-6.5 2.953125,-6.5 c 0.140625,0 0.25,0 0.25,-0.203125 0,-0.078125 -0.078125,-0.109375 -0.125,-0.109375 -0.40625,0 -0.828125,0.03125 -1.25,0.03125 -0.171875,0 -0.359375,0 -0.546875,0 -0.171875,0 -0.359375,-0.03125 -0.53125,-0.03125 -0.078125,0 -0.1875,0 -0.1875,0.1875 0,0.125 0.078125,0.125 0.25,0.125 0.546875,0 0.5625,0.09375 0.59375,0.34375 L 2.1875,-0.015625 C 2.21875,0.1875 2.265625,0.21875 2.390625,0.21875 c 0.15625,0 0.203125,-0.046875 0.28125,-0.171875 z m 0,0"
           id="path3560" />
      </symbol>
      <symbol
         overflow="visible"
         id="symbol1068">
        <path
           style="stroke:none"
           d=""
           id="path3031" />
      </symbol>
      <symbol
         overflow="visible"
         id="symbol104">
        <path
           style="stroke:none"
           d="M 3.984375,-4.625 C 3.984375,-4.640625 4,-4.734375 4,-4.734375 4,-4.78125 3.984375,-4.84375 3.890625,-4.84375 3.75,-4.84375 3.171875,-4.78125 3,-4.765625 c -0.046875,0 -0.15625,0.015625 -0.15625,0.15625 0,0.09375 0.109375,0.09375 0.1875,0.09375 0.328125,0 0.328125,0.0625 0.328125,0.109375 0,0.046875 0,0.09375 -0.015625,0.15625 L 2.9375,-2.65625 c -0.140625,-0.234375 -0.375,-0.421875 -0.71875,-0.421875 -0.890625,0 -1.796875,0.984375 -1.796875,1.984375 0,0.6875 0.453125,1.15625 1.0625,1.15625 0.375,0 0.703125,-0.203125 0.984375,-0.484375 C 2.59375,0 3,0.0625 3.1875,0.0625 c 0.25,0 0.421875,-0.140625 0.546875,-0.359375 0.15625,-0.28125 0.25,-0.671875 0.25,-0.703125 0,-0.09375 -0.09375,-0.09375 -0.109375,-0.09375 -0.109375,0 -0.109375,0.03125 -0.15625,0.21875 C 3.625,-0.53125 3.5,-0.125 3.203125,-0.125 3.03125,-0.125 2.96875,-0.28125 2.96875,-0.46875 c 0,-0.125 0.015625,-0.1875 0.046875,-0.28125 z M 2.5,-0.875 C 2.453125,-0.671875 2.296875,-0.53125 2.140625,-0.40625 2.078125,-0.34375 1.796875,-0.125 1.5,-0.125 c -0.265625,0 -0.515625,-0.1875 -0.515625,-0.671875 0,-0.375 0.203125,-1.140625 0.375,-1.421875 0.3125,-0.5625 0.671875,-0.65625 0.859375,-0.65625 0.484375,0 0.625,0.53125 0.625,0.609375 0,0.015625 -0.015625,0.078125 -0.015625,0.09375 z m 0,0"
           id="path7478" />
      </symbol>
      <symbol
         overflow="visible"
         id="symbol2706">
        <path
           style="stroke:none"
           d="m 3.703125,-2.578125 c 0.03125,-0.09375 0.03125,-0.125 0.03125,-0.140625 0,-0.15625 -0.125,-0.21875 -0.234375,-0.21875 -0.15625,0 -0.296875,0.125 -0.328125,0.265625 -0.109375,-0.1875 -0.34375,-0.40625 -0.71875,-0.40625 -0.859375,0 -1.78125,0.9375 -1.78125,1.9375 0,0.71875 0.484375,1.140625 1.0625,1.140625 0.328125,0 0.625,-0.15625 0.875,-0.375 L 2.453125,0.25 C 2.375,0.546875 2.328125,0.734375 2.0625,0.96875 c -0.3125,0.25 -0.609375,0.25 -0.78125,0.25 -0.3125,0 -0.40625,-0.015625 -0.53125,-0.046875 0.171875,-0.078125 0.21875,-0.25 0.21875,-0.34375 0,-0.171875 -0.125,-0.25 -0.265625,-0.25 C 0.5,0.578125 0.296875,0.734375 0.296875,1 c 0,0.421875 0.609375,0.421875 1,0.421875 1.09375,0 1.546875,-0.5625 1.65625,-0.953125 z M 2.75,-0.921875 c -0.03125,0.09375 -0.03125,0.109375 -0.15625,0.25 C 2.359375,-0.375 2.015625,-0.1875 1.75,-0.1875 c -0.34375,0 -0.515625,-0.3125 -0.515625,-0.671875 0,-0.296875 0.1875,-1.078125 0.375,-1.390625 0.28125,-0.484375 0.609375,-0.625 0.84375,-0.625 0.5,0 0.625,0.515625 0.625,0.59375 0,0.015625 0,0.015625 -0.015625,0.09375 z m 0,0"
           id="path8588" />
      </symbol>
    </g>
  </defs>
  <g
     inkscape:label="Layer 1"
     inkscape:groupmode="layer"
     id="layer1"
     transform="translate(-34.046902,-114.43538)">
    <g
       id="g9973"
       transform="matrix(1.22799,0,0,1.22799,-7.7623511,-36.943828)">
      <g
         id="g9792">
        <path
           d="m 39.867734,132.95677 -1.296459,1.29645 c -0.05292,0.0529 -0.132291,0.0794 -0.185208,0.0794 -0.05292,0 -0.132292,-0.0265 -0.185208,-0.0794 -0.105834,-0.10583 -0.105834,-0.26458 0,-0.37041 l 1.296458,-1.29646 c -0.396875,-0.3175 -0.926042,-0.52917 -1.481667,-0.52917 -1.322916,0 -2.38125,1.05834 -2.38125,2.38125 0,1.32292 1.058334,2.38125 2.38125,2.38125 1.322917,0 2.38125,-1.05833 2.38125,-2.38125 0,-0.55562 -0.185208,-1.08479 -0.529166,-1.48166 z"
           id="path840"
           style="fill:#3434ad;fill-opacity:1;stroke-width:0.264583" />
        <g
           id="g844"
           transform="matrix(0.26458333,0,0,0.26458333,33.782317,129.41135)"
           style="fill:#3434ad;fill-opacity:1">
          <path
             d="M 16,8 C 15.4,8 15,7.6 15,7 V 5 c 0,-0.6 0.4,-1 1,-1 0.6,0 1,0.4 1,1 v 2 c 0,0.6 -0.4,1 -1,1 z"
             id="path842"
             style="fill:#3434ad;fill-opacity:1" />
        </g>
        <g
           id="g848"
           transform="matrix(0.26458333,0,0,0.26458333,33.782317,129.41135)"
           style="fill:#3434ad;fill-opacity:1">
          <path
             d="M 10,9.6 C 9.7,9.6 9.3,9.4 9.1,9.1 L 8.1,7.4 C 7.9,6.9 8,6.3 8.5,6 9,5.7 9.6,5.9 9.9,6.4 l 1,1.7 C 11.2,8.6 11,9.2 10.5,9.5 10.3,9.6 10.2,9.6 10,9.6 Z"
             id="path846"
             style="fill:#3434ad;fill-opacity:1" />
        </g>
        <g
           id="g852"
           transform="matrix(0.26458333,0,0,0.26458333,33.782317,129.41135)"
           style="fill:#3434ad;fill-opacity:1">
          <path
             d="M 5.6,14 C 5.4,14 5.3,14 5.1,13.9 l -1.7,-1 C 2.9,12.6 2.7,12 3,11.5 3.3,11 3.9,10.9 4.4,11.1 l 1.7,1 C 6.6,12.4 6.7,13 6.5,13.5 6.3,13.8 6,14 5.6,14 Z"
             id="path850"
             style="fill:#3434ad;fill-opacity:1" />
        </g>
        <g
           id="g856"
           transform="matrix(0.26458333,0,0,0.26458333,33.782317,129.41135)"
           style="fill:#3434ad;fill-opacity:1">
          <path
             d="M 4,20 H 2 C 1.4,20 1,19.6 1,19 1,18.4 1.4,18 2,18 h 2 c 0.6,0 1,0.4 1,1 0,0.6 -0.4,1 -1,1 z"
             id="path854"
             style="fill:#3434ad;fill-opacity:1" />
        </g>
        <g
           id="g860"
           transform="matrix(0.26458333,0,0,0.26458333,33.782317,129.41135)"
           style="fill:#3434ad;fill-opacity:1">
          <path
             d="m 30,20 h -2 c -0.6,0 -1,-0.4 -1,-1 0,-0.6 0.4,-1 1,-1 h 2 c 0.6,0 1,0.4 1,1 0,0.6 -0.4,1 -1,1 z"
             id="path858"
             style="fill:#3434ad;fill-opacity:1" />
        </g>
        <g
           id="g864"
           transform="matrix(0.26458333,0,0,0.26458333,33.782317,129.41135)"
           style="fill:#3434ad;fill-opacity:1">
          <path
             d="m 26.4,14 c -0.3,0 -0.7,-0.2 -0.9,-0.5 -0.3,-0.5 -0.1,-1.1 0.4,-1.4 l 1.7,-1 c 0.5,-0.3 1.1,-0.1 1.4,0.4 0.3,0.5 0.1,1.1 -0.4,1.4 l -1.7,1 C 26.7,14 26.6,14 26.4,14 Z"
             id="path862"
             style="fill:#3434ad;fill-opacity:1" />
        </g>
        <g
           id="g868"
           transform="matrix(0.26458333,0,0,0.26458333,33.782317,129.41135)"
           style="fill:#3434ad;fill-opacity:1">
          <path
             d="m 22,9.6 c -0.2,0 -0.3,0 -0.5,-0.1 C 21,9.2 20.9,8.6 21.1,8.1 l 1,-1.7 C 22.4,5.9 23,5.7 23.5,6 24,6.3 24.1,6.9 23.9,7.4 l -1,1.7 C 22.7,9.4 22.3,9.6 22,9.6 Z"
             id="path866"
             style="fill:#3434ad;fill-opacity:1" />
        </g>
      </g>
      <g
         id="g1160"
         transform="translate(-4.283045,5.3718383)">
        <path
           d="m 58.439553,127.58493 -1.296459,1.29645 c -0.05292,0.0529 -0.132291,0.0794 -0.185208,0.0794 -0.05292,0 -0.132292,-0.0265 -0.185208,-0.0794 -0.105834,-0.10583 -0.105834,-0.26458 0,-0.37041 l 1.296458,-1.29646 c -0.396875,-0.3175 -0.926042,-0.52917 -1.481667,-0.52917 -1.322916,0 -2.38125,1.05834 -2.38125,2.38125 0,1.32292 1.058334,2.38125 2.38125,2.38125 1.322917,0 2.38125,-1.05833 2.38125,-2.38125 0,-0.55562 -0.185208,-1.08479 -0.529166,-1.48166 z"
           id="path1130"
           style="fill:#34ad34;fill-opacity:1;stroke-width:0.264583" />
        <g
           id="g1134"
           transform="matrix(0.26458333,0,0,0.26458333,52.354136,124.03951)"
           style="fill:#34ad34;fill-opacity:1">
          <path
             d="M 16,8 C 15.4,8 15,7.6 15,7 V 5 c 0,-0.6 0.4,-1 1,-1 0.6,0 1,0.4 1,1 v 2 c 0,0.6 -0.4,1 -1,1 z"
             id="path1132"
             style="fill:#34ad34;fill-opacity:1" />
        </g>
        <g
           id="g1138"
           transform="matrix(0.26458333,0,0,0.26458333,52.354136,124.03951)"
           style="fill:#34ad34;fill-opacity:1">
          <path
             d="M 10,9.6 C 9.7,9.6 9.3,9.4 9.1,9.1 L 8.1,7.4 C 7.9,6.9 8,6.3 8.5,6 9,5.7 9.6,5.9 9.9,6.4 l 1,1.7 C 11.2,8.6 11,9.2 10.5,9.5 10.3,9.6 10.2,9.6 10,9.6 Z"
             id="path1136"
             style="fill:#34ad34;fill-opacity:1" />
        </g>
        <g
           id="g1142"
           transform="matrix(0.26458333,0,0,0.26458333,52.354136,124.03951)"
           style="fill:#34ad34;fill-opacity:1">
          <path
             d="M 5.6,14 C 5.4,14 5.3,14 5.1,13.9 l -1.7,-1 C 2.9,12.6 2.7,12 3,11.5 3.3,11 3.9,10.9 4.4,11.1 l 1.7,1 C 6.6,12.4 6.7,13 6.5,13.5 6.3,13.8 6,14 5.6,14 Z"
             id="path1140"
             style="fill:#34ad34;fill-opacity:1" />
        </g>
        <g
           id="g1146"
           transform="matrix(0.26458333,0,0,0.26458333,52.354136,124.03951)"
           style="fill:#34ad34;fill-opacity:1">
          <path
             d="M 4,20 H 2 C 1.4,20 1,19.6 1,19 1,18.4 1.4,18 2,18 h 2 c 0.6,0 1,0.4 1,1 0,0.6 -0.4,1 -1,1 z"
             id="path1144"
             style="fill:#34ad34;fill-opacity:1" />
        </g>
        <g
           id="g1150"
           transform="matrix(0.26458333,0,0,0.26458333,52.354136,124.03951)"
           style="fill:#34ad34;fill-opacity:1">
          <path
             d="m 30,20 h -2 c -0.6,0 -1,-0.4 -1,-1 0,-0.6 0.4,-1 1,-1 h 2 c 0.6,0 1,0.4 1,1 0,0.6 -0.4,1 -1,1 z"
             id="path1148"
             style="fill:#34ad34;fill-opacity:1" />
        </g>
        <g
           id="g1154"
           transform="matrix(0.26458333,0,0,0.26458333,52.354136,124.03951)"
           style="fill:#34ad34;fill-opacity:1">
          <path
             d="m 26.4,14 c -0.3,0 -0.7,-0.2 -0.9,-0.5 -0.3,-0.5 -0.1,-1.1 0.4,-1.4 l 1.7,-1 c 0.5,-0.3 1.1,-0.1 1.4,0.4 0.3,0.5 0.1,1.1 -0.4,1.4 l -1.7,1 C 26.7,14 26.6,14 26.4,14 Z"
             id="path1152"
             style="fill:#34ad34;fill-opacity:1" />
        </g>
        <g
           id="g1158"
           transform="matrix(0.26458333,0,0,0.26458333,52.354136,124.03951)"
           style="fill:#34ad34;fill-opacity:1">
          <path
             d="m 22,9.6 c -0.2,0 -0.3,0 -0.5,-0.1 C 21,9.2 20.9,8.6 21.1,8.1 l 1,-1.7 C 22.4,5.9 23,5.7 23.5,6 24,6.3 24.1,6.9 23.9,7.4 l -1,1.7 C 22.7,9.4 22.3,9.6 22,9.6 Z"
             id="path1156"
             style="fill:#34ad34;fill-opacity:1" />
        </g>
      </g>
      <g
         id="g1192"
         transform="translate(10.005731,5.3718383)">
        <path
           d="m 58.439553,127.58493 -1.296459,1.29645 c -0.05292,0.0529 -0.132291,0.0794 -0.185208,0.0794 -0.05292,0 -0.132292,-0.0265 -0.185208,-0.0794 -0.105834,-0.10583 -0.105834,-0.26458 0,-0.37041 l 1.296458,-1.29646 c -0.396875,-0.3175 -0.926042,-0.52917 -1.481667,-0.52917 -1.322916,0 -2.38125,1.05834 -2.38125,2.38125 0,1.32292 1.058334,2.38125 2.38125,2.38125 1.322917,0 2.38125,-1.05833 2.38125,-2.38125 0,-0.55562 -0.185208,-1.08479 -0.529166,-1.48166 z"
           id="path1162"
           style="fill:#34ad34;fill-opacity:1;stroke-width:0.264583" />
        <g
           id="g1166"
           transform="matrix(0.26458333,0,0,0.26458333,52.354136,124.03951)"
           style="fill:#34ad34;fill-opacity:1">
          <path
             d="M 16,8 C 15.4,8 15,7.6 15,7 V 5 c 0,-0.6 0.4,-1 1,-1 0.6,0 1,0.4 1,1 v 2 c 0,0.6 -0.4,1 -1,1 z"
             id="path1164"
             style="fill:#34ad34;fill-opacity:1" />
        </g>
        <g
           id="g1170"
           transform="matrix(0.26458333,0,0,0.26458333,52.354136,124.03951)"
           style="fill:#34ad34;fill-opacity:1">
          <path
             d="M 10,9.6 C 9.7,9.6 9.3,9.4 9.1,9.1 L 8.1,7.4 C 7.9,6.9 8,6.3 8.5,6 9,5.7 9.6,5.9 9.9,6.4 l 1,1.7 C 11.2,8.6 11,9.2 10.5,9.5 10.3,9.6 10.2,9.6 10,9.6 Z"
             id="path1168"
             style="fill:#34ad34;fill-opacity:1" />
        </g>
        <g
           id="g1174"
           transform="matrix(0.26458333,0,0,0.26458333,52.354136,124.03951)"
           style="fill:#34ad34;fill-opacity:1">
          <path
             d="M 5.6,14 C 5.4,14 5.3,14 5.1,13.9 l -1.7,-1 C 2.9,12.6 2.7,12 3,11.5 3.3,11 3.9,10.9 4.4,11.1 l 1.7,1 C 6.6,12.4 6.7,13 6.5,13.5 6.3,13.8 6,14 5.6,14 Z"
             id="path1172"
             style="fill:#34ad34;fill-opacity:1" />
        </g>
        <g
           id="g1178"
           transform="matrix(0.26458333,0,0,0.26458333,52.354136,124.03951)"
           style="fill:#34ad34;fill-opacity:1">
          <path
             d="M 4,20 H 2 C 1.4,20 1,19.6 1,19 1,18.4 1.4,18 2,18 h 2 c 0.6,0 1,0.4 1,1 0,0.6 -0.4,1 -1,1 z"
             id="path1176"
             style="fill:#34ad34;fill-opacity:1" />
        </g>
        <g
           id="g1182"
           transform="matrix(0.26458333,0,0,0.26458333,52.354136,124.03951)"
           style="fill:#34ad34;fill-opacity:1">
          <path
             d="m 30,20 h -2 c -0.6,0 -1,-0.4 -1,-1 0,-0.6 0.4,-1 1,-1 h 2 c 0.6,0 1,0.4 1,1 0,0.6 -0.4,1 -1,1 z"
             id="path1180"
             style="fill:#34ad34;fill-opacity:1" />
        </g>
        <g
           id="g1186"
           transform="matrix(0.26458333,0,0,0.26458333,52.354136,124.03951)"
           style="fill:#34ad34;fill-opacity:1">
          <path
             d="m 26.4,14 c -0.3,0 -0.7,-0.2 -0.9,-0.5 -0.3,-0.5 -0.1,-1.1 0.4,-1.4 l 1.7,-1 c 0.5,-0.3 1.1,-0.1 1.4,0.4 0.3,0.5 0.1,1.1 -0.4,1.4 l -1.7,1 C 26.7,14 26.6,14 26.4,14 Z"
             id="path1184"
             style="fill:#34ad34;fill-opacity:1" />
        </g>
        <g
           id="g1190"
           transform="matrix(0.26458333,0,0,0.26458333,52.354136,124.03951)"
           style="fill:#34ad34;fill-opacity:1">
          <path
             d="m 22,9.6 c -0.2,0 -0.3,0 -0.5,-0.1 C 21,9.2 20.9,8.6 21.1,8.1 l 1,-1.7 C 22.4,5.9 23,5.7 23.5,6 24,6.3 24.1,6.9 23.9,7.4 l -1,1.7 C 22.7,9.4 22.3,9.6 22,9.6 Z"
             id="path1188"
             style="fill:#34ad34;fill-opacity:1" />
        </g>
      </g>
      <g
         id="g1400"
         transform="translate(-3.9680208,-5.7288314)">
        <g
           style="fill:#000000;fill-opacity:1"
           id="g3905"
           transform="matrix(0.24403011,0,0,0.24403011,18.486774,125.98869)">
          <use
             xlink:href="#symbol7662"
             x="91.925003"
             y="81.962997"
             id="use1858"
             width="100%"
             height="100%" />
        </g>
        <g
           style="fill:#000000;fill-opacity:1"
           id="g6622"
           transform="matrix(0.24403011,0,0,0.24403011,18.486774,125.98869)">
          <use
             xlink:href="#symbol104"
             x="96.305"
             y="83.457001"
             id="use8103"
             width="100%"
             height="100%" />
        </g>
      </g>
      <g
         id="g1406"
         transform="translate(3.054666,-5.7288314)">
        <g
           style="fill:#000000;fill-opacity:1"
           id="g5488"
           transform="matrix(0.24403011,0,0,0.24403011,18.486774,125.98869)">
          <use
             xlink:href="#symbol475"
             x="120.875"
             y="81.962997"
             id="use5715"
             width="100%"
             height="100%" />
        </g>
        <g
           style="fill:#000000;fill-opacity:1"
           id="g9947"
           transform="matrix(0.24403011,0,0,0.24403011,18.486774,125.98869)">
          <use
             xlink:href="#symbol104"
             x="126.687"
             y="83.457001"
             id="use2216"
             width="100%"
             height="100%" />
        </g>
      </g>
      <g
         id="g1412"
         transform="translate(9.9616075,-5.7288314)">
        <g
           style="fill:#000000;fill-opacity:1"
           id="g4423"
           transform="matrix(0.24403011,0,0,0.24403011,18.486774,125.98869)">
          <use
             xlink:href="#symbol475"
             x="151.258"
             y="81.962997"
             id="use3382"
             width="100%"
             height="100%" />
        </g>
        <g
           style="fill:#000000;fill-opacity:1"
           id="g1386"
           transform="matrix(0.24403011,0,0,0.24403011,18.486774,125.98869)">
          <use
             xlink:href="#symbol2706"
             x="157.069"
             y="83.457001"
             id="use7751"
             width="100%"
             height="100%" />
        </g>
      </g>
    </g>
    <g
       id="g9908"
       transform="matrix(1.22799,0,0,1.22799,-7.7623511,-36.943828)">
      <g
         id="g9809">
        <path
           d="m 39.867734,154.02538 -1.296459,1.29645 c -0.05292,0.0529 -0.132291,0.0794 -0.185208,0.0794 -0.05292,0 -0.132292,-0.0265 -0.185208,-0.0794 -0.105834,-0.10583 -0.105834,-0.26458 0,-0.37041 l 1.296458,-1.29646 c -0.396875,-0.3175 -0.926042,-0.52917 -1.481667,-0.52917 -1.322916,0 -2.38125,1.05834 -2.38125,2.38125 0,1.32292 1.058334,2.38125 2.38125,2.38125 1.322917,0 2.38125,-1.05833 2.38125,-2.38125 0,-0.55562 -0.185208,-1.08479 -0.529166,-1.48166 z"
           id="path1537"
           style="fill:#34ad34;fill-opacity:1;stroke-width:0.264583" />
        <g
           id="g1541"
           transform="matrix(0.26458333,0,0,0.26458333,33.782317,150.47996)"
           style="fill:#34ad34;fill-opacity:1">
          <path
             d="M 16,8 C 15.4,8 15,7.6 15,7 V 5 c 0,-0.6 0.4,-1 1,-1 0.6,0 1,0.4 1,1 v 2 c 0,0.6 -0.4,1 -1,1 z"
             id="path1539"
             style="fill:#34ad34;fill-opacity:1" />
        </g>
        <g
           id="g1545"
           transform="matrix(0.26458333,0,0,0.26458333,33.782317,150.47996)"
           style="fill:#34ad34;fill-opacity:1">
          <path
             d="M 10,9.6 C 9.7,9.6 9.3,9.4 9.1,9.1 L 8.1,7.4 C 7.9,6.9 8,6.3 8.5,6 9,5.7 9.6,5.9 9.9,6.4 l 1,1.7 C 11.2,8.6 11,9.2 10.5,9.5 10.3,9.6 10.2,9.6 10,9.6 Z"
             id="path1543"
             style="fill:#34ad34;fill-opacity:1" />
        </g>
        <g
           id="g1549"
           transform="matrix(0.26458333,0,0,0.26458333,33.782317,150.47996)"
           style="fill:#34ad34;fill-opacity:1">
          <path
             d="M 5.6,14 C 5.4,14 5.3,14 5.1,13.9 l -1.7,-1 C 2.9,12.6 2.7,12 3,11.5 3.3,11 3.9,10.9 4.4,11.1 l 1.7,1 C 6.6,12.4 6.7,13 6.5,13.5 6.3,13.8 6,14 5.6,14 Z"
             id="path1547"
             style="fill:#34ad34;fill-opacity:1" />
        </g>
        <g
           id="g1553"
           transform="matrix(0.26458333,0,0,0.26458333,33.782317,150.47996)"
           style="fill:#34ad34;fill-opacity:1">
          <path
             d="M 4,20 H 2 C 1.4,20 1,19.6 1,19 1,18.4 1.4,18 2,18 h 2 c 0.6,0 1,0.4 1,1 0,0.6 -0.4,1 -1,1 z"
             id="path1551"
             style="fill:#34ad34;fill-opacity:1" />
        </g>
        <g
           id="g1557"
           transform="matrix(0.26458333,0,0,0.26458333,33.782317,150.47996)"
           style="fill:#34ad34;fill-opacity:1">
          <path
             d="m 30,20 h -2 c -0.6,0 -1,-0.4 -1,-1 0,-0.6 0.4,-1 1,-1 h 2 c 0.6,0 1,0.4 1,1 0,0.6 -0.4,1 -1,1 z"
             id="path1555"
             style="fill:#34ad34;fill-opacity:1" />
        </g>
        <g
           id="g1561"
           transform="matrix(0.26458333,0,0,0.26458333,33.782317,150.47996)"
           style="fill:#34ad34;fill-opacity:1">
          <path
             d="m 26.4,14 c -0.3,0 -0.7,-0.2 -0.9,-0.5 -0.3,-0.5 -0.1,-1.1 0.4,-1.4 l 1.7,-1 c 0.5,-0.3 1.1,-0.1 1.4,0.4 0.3,0.5 0.1,1.1 -0.4,1.4 l -1.7,1 C 26.7,14 26.6,14 26.4,14 Z"
             id="path1559"
             style="fill:#34ad34;fill-opacity:1" />
        </g>
        <g
           id="g1565"
           transform="matrix(0.26458333,0,0,0.26458333,33.782317,150.47996)"
           style="fill:#34ad34;fill-opacity:1">
          <path
             d="m 22,9.6 c -0.2,0 -0.3,0 -0.5,-0.1 C 21,9.2 20.9,8.6 21.1,8.1 l 1,-1.7 C 22.4,5.9 23,5.7 23.5,6 24,6.3 24.1,6.9 23.9,7.4 l -1,1.7 C 22.7,9.4 22.3,9.6 22,9.6 Z"
             id="path1563"
             style="fill:#34ad34;fill-opacity:1" />
        </g>
      </g>
      <g
         id="g9843">
        <path
           d="m 54.156508,154.02538 -1.296459,1.29645 c -0.05292,0.0529 -0.132291,0.0794 -0.185208,0.0794 -0.05292,0 -0.132292,-0.0265 -0.185208,-0.0794 -0.105834,-0.10583 -0.105834,-0.26458 0,-0.37041 l 1.296458,-1.29646 c -0.396875,-0.3175 -0.926042,-0.52917 -1.481667,-0.52917 -1.322916,0 -2.38125,1.05834 -2.38125,2.38125 0,1.32292 1.058334,2.38125 2.38125,2.38125 1.322917,0 2.38125,-1.05833 2.38125,-2.38125 0,-0.55562 -0.185208,-1.08479 -0.529166,-1.48166 z"
           id="path1567"
           style="fill:#34ad34;fill-opacity:1;stroke-width:0.264583" />
        <g
           id="g1571"
           transform="matrix(0.26458333,0,0,0.26458333,48.071091,150.47996)"
           style="fill:#34ad34;fill-opacity:1">
          <path
             d="M 16,8 C 15.4,8 15,7.6 15,7 V 5 c 0,-0.6 0.4,-1 1,-1 0.6,0 1,0.4 1,1 v 2 c 0,0.6 -0.4,1 -1,1 z"
             id="path1569"
             style="fill:#34ad34;fill-opacity:1" />
        </g>
        <g
           id="g1575"
           transform="matrix(0.26458333,0,0,0.26458333,48.071091,150.47996)"
           style="fill:#34ad34;fill-opacity:1">
          <path
             d="M 10,9.6 C 9.7,9.6 9.3,9.4 9.1,9.1 L 8.1,7.4 C 7.9,6.9 8,6.3 8.5,6 9,5.7 9.6,5.9 9.9,6.4 l 1,1.7 C 11.2,8.6 11,9.2 10.5,9.5 10.3,9.6 10.2,9.6 10,9.6 Z"
             id="path1573"
             style="fill:#34ad34;fill-opacity:1" />
        </g>
        <g
           id="g1579"
           transform="matrix(0.26458333,0,0,0.26458333,48.071091,150.47996)"
           style="fill:#34ad34;fill-opacity:1">
          <path
             d="M 5.6,14 C 5.4,14 5.3,14 5.1,13.9 l -1.7,-1 C 2.9,12.6 2.7,12 3,11.5 3.3,11 3.9,10.9 4.4,11.1 l 1.7,1 C 6.6,12.4 6.7,13 6.5,13.5 6.3,13.8 6,14 5.6,14 Z"
             id="path1577"
             style="fill:#34ad34;fill-opacity:1" />
        </g>
        <g
           id="g1583"
           transform="matrix(0.26458333,0,0,0.26458333,48.071091,150.47996)"
           style="fill:#34ad34;fill-opacity:1">
          <path
             d="M 4,20 H 2 C 1.4,20 1,19.6 1,19 1,18.4 1.4,18 2,18 h 2 c 0.6,0 1,0.4 1,1 0,0.6 -0.4,1 -1,1 z"
             id="path1581"
             style="fill:#34ad34;fill-opacity:1" />
        </g>
        <g
           id="g1587"
           transform="matrix(0.26458333,0,0,0.26458333,48.071091,150.47996)"
           style="fill:#34ad34;fill-opacity:1">
          <path
             d="m 30,20 h -2 c -0.6,0 -1,-0.4 -1,-1 0,-0.6 0.4,-1 1,-1 h 2 c 0.6,0 1,0.4 1,1 0,0.6 -0.4,1 -1,1 z"
             id="path1585"
             style="fill:#34ad34;fill-opacity:1" />
        </g>
        <g
           id="g1591"
           transform="matrix(0.26458333,0,0,0.26458333,48.071091,150.47996)"
           style="fill:#34ad34;fill-opacity:1">
          <path
             d="m 26.4,14 c -0.3,0 -0.7,-0.2 -0.9,-0.5 -0.3,-0.5 -0.1,-1.1 0.4,-1.4 l 1.7,-1 c 0.5,-0.3 1.1,-0.1 1.4,0.4 0.3,0.5 0.1,1.1 -0.4,1.4 l -1.7,1 C 26.7,14 26.6,14 26.4,14 Z"
             id="path1589"
             style="fill:#34ad34;fill-opacity:1" />
        </g>
        <g
           id="g1595"
           transform="matrix(0.26458333,0,0,0.26458333,48.071091,150.47996)"
           style="fill:#34ad34;fill-opacity:1">
          <path
             d="m 22,9.6 c -0.2,0 -0.3,0 -0.5,-0.1 C 21,9.2 20.9,8.6 21.1,8.1 l 1,-1.7 C 22.4,5.9 23,5.7 23.5,6 24,6.3 24.1,6.9 23.9,7.4 l -1,1.7 C 22.7,9.4 22.3,9.6 22,9.6 Z"
             id="path1593"
             style="fill:#34ad34;fill-opacity:1" />
        </g>
      </g>
      <g
         id="g9826">
        <path
           d="m 68.445284,154.02538 -1.296459,1.29645 c -0.05292,0.0529 -0.132291,0.0794 -0.185208,0.0794 -0.05292,0 -0.132292,-0.0265 -0.185208,-0.0794 -0.105834,-0.10583 -0.105834,-0.26458 0,-0.37041 l 1.296458,-1.29646 c -0.396875,-0.3175 -0.926042,-0.52917 -1.481667,-0.52917 -1.322916,0 -2.38125,1.05834 -2.38125,2.38125 0,1.32292 1.058334,2.38125 2.38125,2.38125 1.322917,0 2.38125,-1.05833 2.38125,-2.38125 0,-0.55562 -0.185208,-1.08479 -0.529166,-1.48166 z"
           id="path1599"
           style="fill:#3434ad;fill-opacity:1;stroke-width:0.264583" />
        <g
           id="g1603"
           transform="matrix(0.26458333,0,0,0.26458333,62.359867,150.47996)"
           style="fill:#3434ad;fill-opacity:1">
          <path
             d="M 16,8 C 15.4,8 15,7.6 15,7 V 5 c 0,-0.6 0.4,-1 1,-1 0.6,0 1,0.4 1,1 v 2 c 0,0.6 -0.4,1 -1,1 z"
             id="path1601"
             style="fill:#3434ad;fill-opacity:1" />
        </g>
        <g
           id="g1607"
           transform="matrix(0.26458333,0,0,0.26458333,62.359867,150.47996)"
           style="fill:#3434ad;fill-opacity:1">
          <path
             d="M 10,9.6 C 9.7,9.6 9.3,9.4 9.1,9.1 L 8.1,7.4 C 7.9,6.9 8,6.3 8.5,6 9,5.7 9.6,5.9 9.9,6.4 l 1,1.7 C 11.2,8.6 11,9.2 10.5,9.5 10.3,9.6 10.2,9.6 10,9.6 Z"
             id="path1605"
             style="fill:#3434ad;fill-opacity:1" />
        </g>
        <g
           id="g1611"
           transform="matrix(0.26458333,0,0,0.26458333,62.359867,150.47996)"
           style="fill:#3434ad;fill-opacity:1">
          <path
             d="M 5.6,14 C 5.4,14 5.3,14 5.1,13.9 l -1.7,-1 C 2.9,12.6 2.7,12 3,11.5 3.3,11 3.9,10.9 4.4,11.1 l 1.7,1 C 6.6,12.4 6.7,13 6.5,13.5 6.3,13.8 6,14 5.6,14 Z"
             id="path1609"
             style="fill:#3434ad;fill-opacity:1" />
        </g>
        <g
           id="g1615"
           transform="matrix(0.26458333,0,0,0.26458333,62.359867,150.47996)"
           style="fill:#3434ad;fill-opacity:1">
          <path
             d="M 4,20 H 2 C 1.4,20 1,19.6 1,19 1,18.4 1.4,18 2,18 h 2 c 0.6,0 1,0.4 1,1 0,0.6 -0.4,1 -1,1 z"
             id="path1613"
             style="fill:#3434ad;fill-opacity:1" />
        </g>
        <g
           id="g1619"
           transform="matrix(0.26458333,0,0,0.26458333,62.359867,150.47996)"
           style="fill:#3434ad;fill-opacity:1">
          <path
             d="m 30,20 h -2 c -0.6,0 -1,-0.4 -1,-1 0,-0.6 0.4,-1 1,-1 h 2 c 0.6,0 1,0.4 1,1 0,0.6 -0.4,1 -1,1 z"
             id="path1617"
             style="fill:#3434ad;fill-opacity:1" />
        </g>
        <g
           id="g1623"
           transform="matrix(0.26458333,0,0,0.26458333,62.359867,150.47996)"
           style="fill:#3434ad;fill-opacity:1">
          <path
             d="m 26.4,14 c -0.3,0 -0.7,-0.2 -0.9,-0.5 -0.3,-0.5 -0.1,-1.1 0.4,-1.4 l 1.7,-1 c 0.5,-0.3 1.1,-0.1 1.4,0.4 0.3,0.5 0.1,1.1 -0.4,1.4 l -1.7,1 C 26.7,14 26.6,14 26.4,14 Z"
             id="path1621"
             style="fill:#3434ad;fill-opacity:1" />
        </g>
        <g
           id="g1627"
           transform="matrix(0.26458333,0,0,0.26458333,62.359867,150.47996)"
           style="fill:#3434ad;fill-opacity:1">
          <path
             d="m 22,9.6 c -0.2,0 -0.3,0 -0.5,-0.1 C 21,9.2 20.9,8.6 21.1,8.1 l 1,-1.7 C 22.4,5.9 23,5.7 23.5,6 24,6.3 24.1,6.9 23.9,7.4 l -1,1.7 C 22.7,9.4 22.3,9.6 22,9.6 Z"
             id="path1625"
             style="fill:#3434ad;fill-opacity:1" />
        </g>
      </g>
      <g
         id="g1639"
         transform="translate(-3.9680208,15.339782)">
        <g
           style="fill:#000000;fill-opacity:1"
           id="g1633"
           transform="matrix(0.24403011,0,0,0.24403011,18.486774,125.98869)">
          <use
             xlink:href="#symbol7662"
             x="91.925003"
             y="81.962997"
             id="use1631"
             width="100%"
             height="100%" />
        </g>
        <g
           style="fill:#000000;fill-opacity:1"
           id="g1637"
           transform="matrix(0.24403011,0,0,0.24403011,18.486774,125.98869)">
          <use
             xlink:href="#symbol104"
             x="96.305"
             y="83.457001"
             id="use1635"
             width="100%"
             height="100%" />
        </g>
      </g>
      <g
         id="g1649"
         transform="translate(3.054666,15.339782)">
        <g
           style="fill:#000000;fill-opacity:1"
           id="g1643"
           transform="matrix(0.24403011,0,0,0.24403011,18.486774,125.98869)">
          <use
             xlink:href="#symbol475"
             x="120.875"
             y="81.962997"
             id="use1641"
             width="100%"
             height="100%" />
        </g>
        <g
           style="fill:#000000;fill-opacity:1"
           id="g1647"
           transform="matrix(0.24403011,0,0,0.24403011,18.486774,125.98869)">
          <use
             xlink:href="#symbol104"
             x="126.687"
             y="83.457001"
             id="use1645"
             width="100%"
             height="100%" />
        </g>
      </g>
      <g
         id="g1659"
         transform="translate(9.9616075,15.339782)">
        <g
           style="fill:#000000;fill-opacity:1"
           id="g1653"
           transform="matrix(0.24403011,0,0,0.24403011,18.486774,125.98869)">
          <use
             xlink:href="#symbol475"
             x="151.258"
             y="81.962997"
             id="use1651"
             width="100%"
             height="100%" />
        </g>
        <g
           style="fill:#000000;fill-opacity:1"
           id="g1657"
           transform="matrix(0.24403011,0,0,0.24403011,18.486774,125.98869)">
          <use
             xlink:href="#symbol2706"
             x="157.069"
             y="83.457001"
             id="use1655"
             width="100%"
             height="100%" />
        </g>
      </g>
    </g>
    <text
       xml:space="preserve"
       style="font-style:normal;font-weight:normal;font-size:4.33208px;line-height:1.25;font-family:sans-serif;letter-spacing:0px;word-spacing:0px;fill:#000000;fill-opacity:1;stroke:none;stroke-width:0.324905"
       x="86.529167"
       y="130.81729"
       id="text3313"><tspan
         sodipodi:role="line"
         id="tspan3311"
         style="font-size:4.33208px;stroke-width:0.324905"
         x="86.529167"
         y="130.81729">OPEN_LOOP_MODE</tspan></text>
    <text
       xml:space="preserve"
       style="font-style:normal;font-weight:normal;font-size:4.33208px;line-height:1.25;font-family:sans-serif;letter-spacing:0px;word-spacing:0px;fill:#000000;fill-opacity:1;stroke:none;stroke-width:0.324905"
       x="86.529167"
       y="156.68935"
       id="text6081"><tspan
         sodipodi:role="line"
         id="tspan6079"
         style="font-size:4.33208px;stroke-width:0.324905"
         x="86.529167"
         y="156.68935">CLOSED_LOOP_MODE</tspan></text>
    <path
       style="fill:none;stroke:#000000;stroke-width:0.324905px;stroke-linecap:butt;stroke-linejoin:miter;stroke-opacity:1;marker-end:url(#Arrow1Mend)"
       d="m 56.466955,122.69523 c -8.4752,-11.27152 -17.343693,-0.2322 -17.343693,-0.2322"
       id="path10008"
       sodipodi:nodetypes="cc" />
    <path
       style="fill:none;stroke:#000000;stroke-width:0.324905px;stroke-linecap:butt;stroke-linejoin:miter;stroke-opacity:1;marker-end:url(#Arrow1Mend)"
       d="m 56.554164,148.1517 c 8.4752,-11.27152 17.343693,-0.2322 17.343693,-0.2322"
       id="path10377"
       sodipodi:nodetypes="cc" />
    <path
       style="fill:none;stroke:#000000;stroke-width:0.324905px;stroke-linecap:butt;stroke-linejoin:miter;stroke-opacity:1;marker-end:url(#Arrow1Mend)"
       d="m 73.873201,122.69523 c -19.708332,-18.09088 -34.749939,-0.2322 -34.749939,-0.2322"
       id="path10379"
       sodipodi:nodetypes="cc" />
    <path
       style="fill:none;stroke:#000000;stroke-width:0.324905px;stroke-linecap:butt;stroke-linejoin:miter;stroke-opacity:1;marker-end:url(#Arrow1Mend)"
       d="m 39.147917,148.1517 c 19.708333,-18.09088 34.74994,-0.2322 34.74994,-0.2322"
       id="path10438"
       sodipodi:nodetypes="cc" />
  </g>
</svg>
